<mxfile host="Electron" modified="2023-07-20T11:56:13.425Z" agent="Mozilla/5.0 (Windows NT 10.0; Win64; x64) AppleWebKit/537.36 (KHTML, like Gecko) draw.io/21.4.0 Chrome/112.0.5615.204 Electron/24.5.1 Safari/537.36" etag="SZJ3vf9HyLHvjtfRYKi6" version="21.4.0" type="device">
  <diagram name="Page-1" id="UPgoN9eg5TEcjqnkwgA9">
    <mxGraphModel dx="1077" dy="627" grid="1" gridSize="10" guides="1" tooltips="1" connect="1" arrows="1" fold="1" page="1" pageScale="1" pageWidth="827" pageHeight="1169" math="0" shadow="0">
      <root>
        <mxCell id="0" />
        <mxCell id="1" parent="0" />
        <mxCell id="55vz0YSzrv-_YePRzfZ5-1" value="&lt;b&gt;&lt;font style=&quot;font-size: 18px;&quot;&gt;eQual&lt;/font&gt;&lt;/b&gt;" style="text;html=1;strokeColor=none;fillColor=none;align=center;verticalAlign=middle;whiteSpace=wrap;rounded=0;" parent="1" vertex="1">
          <mxGeometry x="91" y="100" width="60" height="30" as="geometry" />
        </mxCell>
        <mxCell id="55vz0YSzrv-_YePRzfZ5-2" value="&lt;span style=&quot;font-size: 18px;&quot;&gt;/&lt;/span&gt;" style="text;html=1;strokeColor=none;fillColor=none;align=center;verticalAlign=middle;whiteSpace=wrap;rounded=0;" parent="1" vertex="1">
          <mxGeometry x="100" y="130" width="30" height="30" as="geometry" />
        </mxCell>
        <mxCell id="55vz0YSzrv-_YePRzfZ5-3" value="" style="endArrow=classic;html=1;rounded=0;exitX=0.989;exitY=0.662;exitDx=0;exitDy=0;exitPerimeter=0;" parent="1" edge="1">
          <mxGeometry width="50" height="50" relative="1" as="geometry">
            <mxPoint x="128.67000000000007" y="149.86" as="sourcePoint" />
            <mxPoint x="370" y="150" as="targetPoint" />
          </mxGeometry>
        </mxCell>
        <mxCell id="55vz0YSzrv-_YePRzfZ5-4" value="&lt;font style=&quot;font-size: 18px;&quot;&gt;&lt;b&gt;Git repository&lt;/b&gt;&lt;/font&gt;" style="text;html=1;strokeColor=none;fillColor=none;align=center;verticalAlign=middle;whiteSpace=wrap;rounded=0;" parent="1" vertex="1">
          <mxGeometry x="348" y="99" width="130" height="30" as="geometry" />
        </mxCell>
        <mxCell id="55vz0YSzrv-_YePRzfZ5-5" value="&lt;span style=&quot;font-size: 18px;&quot;&gt;equal.git&lt;/span&gt;" style="text;html=1;strokeColor=none;fillColor=none;align=center;verticalAlign=middle;whiteSpace=wrap;rounded=0;" parent="1" vertex="1">
          <mxGeometry x="380" y="135" width="60" height="30" as="geometry" />
        </mxCell>
        <mxCell id="55vz0YSzrv-_YePRzfZ5-6" value="" style="endArrow=none;html=1;rounded=0;" parent="1" edge="1">
          <mxGeometry width="50" height="50" relative="1" as="geometry">
            <mxPoint x="110" y="396" as="sourcePoint" />
            <mxPoint x="110" y="164" as="targetPoint" />
          </mxGeometry>
        </mxCell>
        <mxCell id="55vz0YSzrv-_YePRzfZ5-7" value="" style="endArrow=none;html=1;rounded=0;" parent="1" edge="1">
          <mxGeometry width="50" height="50" relative="1" as="geometry">
            <mxPoint x="110" y="227" as="sourcePoint" />
            <mxPoint x="160" y="227" as="targetPoint" />
          </mxGeometry>
        </mxCell>
        <mxCell id="55vz0YSzrv-_YePRzfZ5-8" value="&lt;span style=&quot;font-size: 18px;&quot;&gt;/packages&lt;/span&gt;" style="text;html=1;strokeColor=none;fillColor=none;align=center;verticalAlign=middle;whiteSpace=wrap;rounded=0;" parent="1" vertex="1">
          <mxGeometry x="175" y="211" width="60" height="30" as="geometry" />
        </mxCell>
        <mxCell id="55vz0YSzrv-_YePRzfZ5-9" value="" style="endArrow=classic;html=1;rounded=0;" parent="1" edge="1">
          <mxGeometry width="50" height="50" relative="1" as="geometry">
            <mxPoint x="260" y="227" as="sourcePoint" />
            <mxPoint x="370" y="227" as="targetPoint" />
          </mxGeometry>
        </mxCell>
        <mxCell id="55vz0YSzrv-_YePRzfZ5-10" value="&lt;span style=&quot;font-size: 18px;&quot;&gt;symbiose.git&lt;/span&gt;" style="text;html=1;strokeColor=none;fillColor=none;align=center;verticalAlign=middle;whiteSpace=wrap;rounded=0;" parent="1" vertex="1">
          <mxGeometry x="394" y="211" width="60" height="30" as="geometry" />
        </mxCell>
        <mxCell id="55vz0YSzrv-_YePRzfZ5-11" value="" style="endArrow=none;html=1;rounded=0;" parent="1" edge="1">
          <mxGeometry width="50" height="50" relative="1" as="geometry">
            <mxPoint x="200" y="273" as="sourcePoint" />
            <mxPoint x="200" y="243" as="targetPoint" />
          </mxGeometry>
        </mxCell>
        <mxCell id="55vz0YSzrv-_YePRzfZ5-12" value="" style="endArrow=none;html=1;rounded=0;" parent="1" edge="1">
          <mxGeometry width="50" height="50" relative="1" as="geometry">
            <mxPoint x="200" y="273" as="sourcePoint" />
            <mxPoint x="250" y="273" as="targetPoint" />
          </mxGeometry>
        </mxCell>
        <mxCell id="55vz0YSzrv-_YePRzfZ5-13" value="" style="endArrow=none;html=1;rounded=0;" parent="1" edge="1">
          <mxGeometry width="50" height="50" relative="1" as="geometry">
            <mxPoint x="110" y="355" as="sourcePoint" />
            <mxPoint x="160" y="355" as="targetPoint" />
          </mxGeometry>
        </mxCell>
        <mxCell id="55vz0YSzrv-_YePRzfZ5-14" value="&lt;font style=&quot;font-size: 14px;&quot;&gt;/core&lt;/font&gt;" style="text;html=1;strokeColor=none;fillColor=none;align=left;verticalAlign=middle;whiteSpace=wrap;rounded=0;" parent="1" vertex="1">
          <mxGeometry x="253" y="270" width="60" height="2" as="geometry" />
        </mxCell>
        <mxCell id="55vz0YSzrv-_YePRzfZ5-15" value="" style="endArrow=none;html=1;rounded=0;" parent="1" edge="1">
          <mxGeometry width="50" height="50" relative="1" as="geometry">
            <mxPoint x="200" y="320" as="sourcePoint" />
            <mxPoint x="200" y="267" as="targetPoint" />
          </mxGeometry>
        </mxCell>
        <mxCell id="55vz0YSzrv-_YePRzfZ5-16" value="" style="endArrow=none;html=1;rounded=0;" parent="1" edge="1">
          <mxGeometry width="50" height="50" relative="1" as="geometry">
            <mxPoint x="200" y="297" as="sourcePoint" />
            <mxPoint x="250" y="297" as="targetPoint" />
          </mxGeometry>
        </mxCell>
        <mxCell id="55vz0YSzrv-_YePRzfZ5-17" value="&lt;font style=&quot;font-size: 14px;&quot;&gt;/sale&lt;/font&gt;" style="text;html=1;strokeColor=none;fillColor=none;align=center;verticalAlign=middle;whiteSpace=wrap;rounded=0;" parent="1" vertex="1">
          <mxGeometry x="248" y="296" width="40" height="3" as="geometry" />
        </mxCell>
        <mxCell id="55vz0YSzrv-_YePRzfZ5-19" value="&lt;span style=&quot;font-size: 18px;&quot;&gt;/public&lt;/span&gt;" style="text;html=1;strokeColor=none;fillColor=none;align=center;verticalAlign=middle;whiteSpace=wrap;rounded=0;" parent="1" vertex="1">
          <mxGeometry x="161" y="336" width="60" height="30" as="geometry" />
        </mxCell>
        <mxCell id="FfYFBNBCZyvZ501cCbCg-1" value="" style="endArrow=none;html=1;rounded=0;" edge="1" parent="1">
          <mxGeometry width="50" height="50" relative="1" as="geometry">
            <mxPoint x="110" y="396" as="sourcePoint" />
            <mxPoint x="160" y="396" as="targetPoint" />
          </mxGeometry>
        </mxCell>
        <mxCell id="FfYFBNBCZyvZ501cCbCg-2" value="&lt;span style=&quot;font-size: 18px;&quot;&gt;[...]&lt;/span&gt;" style="text;html=1;strokeColor=none;fillColor=none;align=left;verticalAlign=middle;whiteSpace=wrap;rounded=0;" vertex="1" parent="1">
          <mxGeometry x="161" y="377" width="60" height="30" as="geometry" />
        </mxCell>
        <mxCell id="FfYFBNBCZyvZ501cCbCg-3" value="" style="endArrow=none;html=1;rounded=0;" edge="1" parent="1">
          <mxGeometry width="50" height="50" relative="1" as="geometry">
            <mxPoint x="200" y="320" as="sourcePoint" />
            <mxPoint x="251" y="320" as="targetPoint" />
          </mxGeometry>
        </mxCell>
        <mxCell id="FfYFBNBCZyvZ501cCbCg-4" value="&lt;span style=&quot;font-size: 14px;&quot;&gt;[...]&lt;/span&gt;" style="text;html=1;strokeColor=none;fillColor=none;align=left;verticalAlign=middle;whiteSpace=wrap;rounded=0;" vertex="1" parent="1">
          <mxGeometry x="251" y="319" width="40" height="3" as="geometry" />
        </mxCell>
      </root>
    </mxGraphModel>
  </diagram>
</mxfile>
